<?xml version="1.0" encoding="iso-8859-1"?>
<!-- Generator: Adobe Illustrator 19.0.0, SVG Export Plug-In . SVG Version: 6.00 Build 0)  -->
<svg version="1.1" id="Capa_1" xmlns="http://www.w3.org/2000/svg" xmlns:xlink="http://www.w3.org/1999/xlink" x="0px" y="0px"
	 viewBox="0 0 512 512" style="enable-background:new 0 0 512 512;" xml:space="preserve">
<path style="fill:#FFE194;" d="M256,0C114.615,0,0,114.615,0,256c0,62.128,22.204,119.245,58.914,163.383
	c17.597,21.162,32.959,32.953,35.188,34.935C96.214,454.319,154.129,512,256,512c141.385,0,256-114.615,256-256
	C512,114.862,397.646,0,256,0z"/>
<path style="fill:#69280F;" d="M433.3,440.654c-41.646,40.003-96.799,66.057-157.936,70.619
	c-7.354-5.068-12.168-13.559-12.168-23.167v-47.452H433.3z"/>
<g>
	<rect x="338.935" y="228.977" style="fill:#80391B;" width="36.084" height="191.292"/>
	<path style="fill:#80391B;" d="M469.521,397.28c-7.385,11.146-15.624,21.671-24.621,31.501c-3.74,4.088-7.607,8.049-11.6,11.873
		c-11.104,10.672-23.167,20.344-36.052,28.878H250.121c-9.419,0-17.036-7.638-17.036-17.046v-22.809
		c0-24.8,17.383-45.545,40.635-50.717c3.635-0.801,7.427-1.233,11.315-1.233h143.882
		C445.353,377.726,460.008,385.364,469.521,397.28z"/>
</g>
<path style="fill:#965028;" d="M469.521,397.28c-7.385,11.146-15.624,21.671-24.621,31.501H289.808
	c-9.419,0-17.046-7.638-17.046-17.057v-22.799c0-3.413,0.337-6.732,0.959-9.966c3.635-0.801,7.427-1.233,11.315-1.233h143.882
	C445.353,377.726,460.008,385.364,469.521,397.28z"/>
<path style="fill:#AA6432;" d="M439.9,102.102c0,8.688-3.518,16.537-9.212,22.233c-2.284,2.284-4.922,4.215-7.818,5.717
	c-4.097,2.112-7.057,5.93-7.797,10.5c-0.429,2.671-0.955,5.878-1.609,9.802c-2.746,16.678-7.582,46.214-15.787,101.414
	c-3.056,20.119-20.355,34.995-40.7,34.995c-1.319,0-2.638-0.064-3.936-0.182c-1.223-0.118-2.435-0.29-3.625-0.515
	c-0.611-0.118-1.223-0.247-1.824-0.386c-16.076-3.754-28.743-16.978-31.316-33.911l-16.678-110.723
	c-0.708-4.665-3.7-8.634-7.936-10.715c-10.425-5.116-17.61-15.829-17.61-28.228c0-8.688,3.518-16.537,9.212-22.233
	c5.684-5.684,13.545-9.202,22.221-9.202h102.979C425.818,70.667,439.9,84.738,439.9,102.102z"/>
<g>
	<path style="fill:#B9783D;" d="M413.463,150.353c-2.746,16.678-7.582,46.214-15.787,101.414
		c-3.056,20.119-20.355,34.995-40.7,34.995c-1.319,0-2.638-0.064-3.936-0.182c-1.223-0.118-2.435-0.29-3.625-0.515
		c-0.611-0.118-1.223-0.247-1.824-0.386l-11.808-77.83c-4.59-30.255,18.833-57.496,49.419-57.496H413.463z"/>
	<path style="fill:#B9783D;" d="M439.9,102.102c0,8.688-3.518,16.537-9.212,22.233c-5.684,5.684-13.545,9.202-22.221,9.202h-64.671
		c-17.363,0-31.435-14.071-31.435-31.435c0-8.688,3.518-16.537,9.202-22.233c5.694-5.684,13.556-9.202,22.233-9.202h64.671
		C425.818,70.667,439.9,84.738,439.9,102.102z"/>
</g>
<g>
	<path style="fill:#FF4682;" d="M257.528,188.995C228.64,108.567,141.28,65.625,60.442,90.784
		C53.857,98.569,47.725,106.755,42.1,115.3c5.468-2.813,11.178-5.299,17.12-7.438c74.412-26.728,156.704,12.063,183.432,86.475
		c26.739,74.412-12.053,156.704-86.464,183.432c-47.515,17.067-98.232,7.427-135.654-21.145c4.025,9.419,8.607,18.553,13.675,27.339
		c38.033,19.786,83.883,24.284,127.32,8.681C244.148,362.966,287.206,271.603,257.528,188.995z"/>
	<path style="fill:#FF4682;" d="M201.729,160.927c-2.868-3.29-7.86-3.635-11.148-0.766c-3.29,2.867-3.634,7.858-0.767,11.148
		c2.504,2.873,4.882,5.916,7.07,9.045c2.088,2.987,5.869,4.087,9.143,2.911c0.646-0.232,1.273-0.553,1.862-0.965
		c3.576-2.501,4.447-7.429,1.946-11.004C207.326,167.71,204.6,164.222,201.729,160.927z"/>
	<path style="fill:#FF4682;" d="M42.17,155.452c0.676-0.243,1.331-0.583,1.943-1.023c3.09-2.221,6.343-4.306,9.668-6.198
		c3.794-2.158,5.119-6.982,2.962-10.776c-2.158-3.793-6.986-5.122-10.775-2.96c-3.809,2.166-7.536,4.554-11.077,7.1
		c-3.544,2.546-4.352,7.484-1.806,11.027C35.191,155.555,38.934,156.615,42.17,155.452z"/>
	<path style="fill:#FF4682;" d="M23.273,174.077c2.75-3.392,2.244-8.365-1.148-11.115c-1.191-0.969-2.592-1.538-4.014-1.707
		c-3.329,8.344-6.237,16.92-8.681,25.675c1.064,0.063,2.139-0.095,3.14-0.453c1.559-0.558,2.96-1.612,3.94-3.118
		C18.595,180.156,20.871,177.037,23.273,174.077z"/>
	<path style="fill:#FF4682;" d="M0.021,258.908c0.011,1.517,0.042,3.034,0.095,4.551c0.242-1.011,0.295-2.086,0.116-3.171
		C0.158,259.835,0.084,259.371,0.021,258.908z"/>
	<path style="fill:#FF4682;" d="M80.338,137.45c3.698-0.964,7.483-1.743,11.253-2.313c0.52-0.078,1.022-0.206,1.499-0.378
		c3.479-1.249,5.707-4.82,5.133-8.615c-0.651-4.315-4.678-7.284-8.993-6.632c-4.316,0.651-8.65,1.542-12.882,2.646
		c-4.211,1.101-6.752,5.417-5.651,9.64C71.8,136.023,76.116,138.552,80.338,137.45z"/>
	<path style="fill:#FF4682;" d="M168.315,152.392c2.168,1.452,4.793,1.687,7.072,0.868c1.535-0.551,2.913-1.58,3.889-3.039
		c2.427-3.627,1.456-8.534-2.171-10.961c-3.629-2.429-7.432-4.695-11.299-6.73c-3.863-2.034-8.64-0.551-10.673,3.311
		c-2.032,3.861-0.551,8.64,3.311,10.673C161.823,148.291,165.144,150.27,168.315,152.392z"/>
	<path style="fill:#FF4682;" d="M131.551,136.593c1.52,0.343,3.037,0.222,4.404-0.268c2.458-0.883,4.425-2.965,5.042-5.702
		c0.96-4.256-1.712-8.486-5.969-9.446c-4.267-0.963-8.632-1.708-12.971-2.215c-4.335-0.506-8.259,2.598-8.764,6.932
		c-0.506,4.335,2.598,8.259,6.932,8.764C124.014,135.103,127.824,135.753,131.551,136.593z"/>
	<path style="fill:#FF4682;" d="M37.8,341.734c1.339-0.481,2.566-1.331,3.516-2.529c2.71-3.421,2.132-8.391-1.288-11.1
		c-2.995-2.372-5.894-4.927-8.614-7.594c-3.116-3.055-8.119-3.006-11.174,0.109c-3.055,3.115-3.007,8.119,0.11,11.174
		c3.116,3.056,6.436,5.983,9.866,8.7C32.438,342.254,35.314,342.626,37.8,341.734z"/>
	<path style="fill:#FF4682;" d="M218.541,280.362c-4.031-1.675-8.653,0.232-10.331,4.261c-1.467,3.525-3.137,7.012-4.965,10.363
		c-2.09,3.831-0.678,8.63,3.152,10.721c2.063,1.126,4.407,1.236,6.459,0.499c1.756-0.631,3.298-1.884,4.262-3.651
		c2.093-3.835,4.005-7.826,5.684-11.861C224.478,286.663,222.57,282.039,218.541,280.362z"/>
	<path style="fill:#FF4682;" d="M186.346,318.121c-2.636,2.758-5.45,5.406-8.363,7.869c-3.332,2.817-3.751,7.803-0.933,11.135
		c2.19,2.591,5.691,3.42,8.708,2.337c0.863-0.31,1.687-0.776,2.427-1.403c3.339-2.823,6.565-5.857,9.586-9.018
		c3.015-3.155,2.903-8.157-0.253-11.172C194.362,314.853,189.361,314.966,186.346,318.121z"/>
	<path style="fill:#FF4682;" d="M226.161,265.422c2.696-0.968,4.768-3.373,5.168-6.409c0.571-4.343,0.916-8.758,1.025-13.122
		c0.109-4.363-3.341-7.987-7.702-8.096c-4.365-0.109-7.987,3.341-8.096,7.702c-0.095,3.809-0.396,7.661-0.894,11.453
		c-0.57,4.327,2.477,8.296,6.803,8.866C223.755,265.985,225.013,265.835,226.161,265.422z"/>
	<path style="fill:#FF4682;" d="M224.984,200.58l-0.053-0.145c-1.476-4.108-6.001-6.24-10.108-4.764
		c-4.108,1.476-6.24,6.001-4.764,10.108l0.085,0.236c1.296,3.606,2.412,7.309,3.319,11.005c1.04,4.238,5.318,6.832,9.556,5.792
		c0.274-0.066,0.54-0.148,0.8-0.24c3.759-1.351,5.965-5.351,4.994-9.315C227.776,209.028,226.499,204.794,224.984,200.58z"/>
	<path style="fill:#FF4682;" d="M8.534,287.722c-1.317-2.887-4.13-4.615-7.111-4.646c0.948,9.029,2.37,17.91,4.225,26.634
		c1.317,0.232,2.697,0.126,4.003-0.348c0.453-0.158,0.896-0.369,1.327-0.611c3.761-2.212,5.025-7.048,2.823-10.82
		C11.884,294.644,10.103,291.209,8.534,287.722z"/>
	<path style="fill:#FF4682;" d="M153.857,341.415c-3.028,1.414-6.163,2.706-9.323,3.84c-0.411,0.166-0.889,0.317-1.336,0.471
		c-4.099,1.397-6.315,5.922-4.891,10.047c1.424,4.125,5.923,6.314,10.048,4.891c0.509-0.175,1.001-0.357,1.524-0.537
		c3.61-1.297,7.197-2.775,10.661-4.391c3.955-1.846,5.663-6.548,3.818-10.503C162.513,341.277,157.799,339.574,153.857,341.415z"/>
	<path style="fill:#FF4682;" d="M115.129,351.452c-3.806,0.262-7.669,0.322-11.481,0.179c-4.361-0.164-8.029,3.238-8.193,7.598
		c-0.164,4.361,3.239,8.029,7.599,8.193c4.371,0.164,8.8,0.095,13.164-0.206c0.747-0.051,1.461-0.204,2.132-0.446
		c3.242-1.165,5.456-4.374,5.207-7.981C123.256,354.437,119.482,351.151,115.129,351.452z"/>
	<path style="fill:#FF4682;" d="M64.631,342.795c-4.007-1.728-8.657,0.122-10.384,4.13s0.121,8.656,4.13,10.384
		c4.011,1.729,8.161,3.265,12.333,4.564c1.706,0.532,3.456,0.455,5.016-0.105c2.252-0.809,4.112-2.628,4.878-5.088
		c1.298-4.166-1.027-8.597-5.194-9.894C71.764,345.649,68.137,344.307,64.631,342.795z"/>
	<path style="fill:#FF4682;" d="M26.43,251.868l149.716-53.79c4.108-1.476,6.24-6.001,4.764-10.108
		c-1.476-4.108-6.001-6.24-10.108-4.764L21.087,236.995c-4.107,1.475-6.24,6.001-4.764,10.108
		C17.799,251.211,22.324,253.343,26.43,251.868z"/>
	<path style="fill:#FF4682;" d="M34.49,297.67c1.476,4.108,6.001,6.24,10.108,4.764l149.716-53.79
		c4.108-1.476,6.24-6.001,4.764-10.108c-1.476-4.108-6.001-6.24-10.108-4.764l-149.716,53.79
		C35.147,289.037,33.014,293.562,34.49,297.67z"/>
</g>
<g>
</g>
<g>
</g>
<g>
</g>
<g>
</g>
<g>
</g>
<g>
</g>
<g>
</g>
<g>
</g>
<g>
</g>
<g>
</g>
<g>
</g>
<g>
</g>
<g>
</g>
<g>
</g>
<g>
</g>
</svg>
